<?xml version="1.0" encoding="UTF-8"?>
<svg id="Layer_1" xmlns="http://www.w3.org/2000/svg" version="1.1" viewBox="0 0 665.6 1050.2">
  <!-- Generator: Adobe Illustrator 29.2.1, SVG Export Plug-In . SVG Version: 2.1.0 Build 116)  -->
  <defs>
    <style>
      .st0 {
        fill: none;
      }

      .st1 {
        fill: #6e2528;
      }

      .st2 {
        fill: #78272b;
      }

      .st2, .st3 {
        font-family: Courier, Courier;
        font-size: 542.4px;
      }

      .st2, .st3, .st4 {
        isolation: isolate;
      }

      .st3, .st5 {
        fill: #a0343a;
      }

      .st6 {
        fill: #444d60;
      }

      .st7 {
        fill: #d3c7aa;
      }

      .st8 {
        fill: #d3c6aa;
      }

      .st9 {
        fill: #fefefe;
      }

      .st10 {
        fill: #aea181;
      }

      .st11 {
        display: none;
      }

      .st12 {
        fill: #283246;
      }
    </style>
  </defs>
  <g id="SOHiSb.tif" class="st11">
    <g>
      <path class="st9" d="M664.3-63.9v1150H-169.8V-63.9h834.2ZM332.7-2.3L-95.1,31.8l-.6.5c.4,12.2-.3,24.4,0,36.6,1,36.9,4.6,73.8,6.7,110.7,11.6,205.2,24.9,410.2,37.5,615.3,1.3,21.5,1,43.6,4.2,64.9.3,2,1.5,4.2,3.7,4.6,4.8.9,16.9.2,22.5,0,131.9-3.2,263.7-13.7,395.4-16.7,4.2,0,8.3,0,12.5,0,5.5,14.4,11.8,28.7,17.3,43.1,20.5,53.5,40.9,107.1,61.2,160.7.8.7,2.4,1.1,3.5,1.1,6.5,0,26.2-10.3,32.7-14,3.2-1.8,11.1-5.6,11-9.7,0-1.5-6.1-13.9-7.2-16.9-20.7-55.5-41.1-111.2-61.9-166.8,1.4-.9,3-.8,4.5-.9,40.9-1.2,84.3-2.8,125-5.8,3-.2,10-.6,11.3-2.9s1-15.6.8-19.2c-1.2-21.3-4.4-45.1-6.8-66.5-23.1-211.4-51.7-422.3-74.1-633.8.2-1.2-1.5-1.9-1.7-2.1-.2-.4.2-1.4-.2-1.9-2.4-3.3-18.6-12.3-23.4-15.7C431.3,62.9,383.8,28.5,334.6-2.9l-1.9.6h0Z"/>
      <path class="st7" d="M332.7-2.3c1.3,11.7,1.9,23.6,3.5,35.3,2.9,21.9,6.1,46.5,10.1,68.2,1.9,10.4,5.3,20.6,7.2,31.1,2.3,1.6,39.5-4,45.5-4.6,34.7-3.8,69.5-6.6,103.7-13.3.1.2,1.9.8,1.7,2.1,22.4,211.5,51,422.4,74.1,633.8,2.3,21.4,5.6,45.2,6.8,66.5.2,3.6.6,16.9-.8,19.2s-8.3,2.6-11.3,2.9c-40.8,3-84.1,4.6-125,5.8-1.6,0-3.2,0-4.5.9-19.6-52.5-39.3-105-59.2-157.4-.9-2.4-1.5-5-2.5-7.5s-2.8-5.2-3.3-6.7c-.9-2.4-1.4-6-2.5-8.8-2.2-5.7-5.2-11.1-6.7-17.1,8.1-3,21.2-12.4,28.6-17.6,139.3-99.6,155.3-296.2,13-401.6-115.2-85.3-283.8-59.1-375.7,47.4-5.2,6-18.6,26.5-22.5,29.5-.9.6-1-1.4-1.7,1.7,0,.3,0,.6,0,.8-1.9,0-2.6,1.3-3.7,2.6-33.4,40.1-51.9,134.3-38.6,184.1,12.9,48.6,27.5,79.9,60.2,118.1,63,73.8,164.9,103.1,259.6,82,4-.9,19.4-6.4,21.7-5l64.2,157.8c-131.6,3-263.4,13.5-395.4,16.7-5.6.1-17.7.9-22.5,0-2.2-.4-3.4-2.6-3.7-4.6-3.2-21.3-2.9-43.5-4.2-64.9-12.7-205.1-25.9-410.1-37.5-615.3-2.1-36.9-5.7-73.8-6.7-110.7-.3-12.2.4-24.4,0-36.6l.6-.5L332.7-2.3Z"/>
      <path class="st6" d="M384.3,688.1c19.9,52.4,39.5,104.9,59.2,157.4,20.8,55.5,41.2,111.2,61.9,166.8,1.1,3,7.2,15.4,7.2,16.9,0,4.1-7.8,7.9-11,9.7-6.4,3.7-26.1,13.9-32.7,14-1.1,0-2.7-.3-3.5-1.1-20.3-53.6-40.8-107.2-61.2-160.7-5.5-14.4-11.8-28.7-17.3-43.1-17.4-45.8-34.5-92.2-51.7-138.2,4.4-.6,8.6-2,12.7-3.5,6.7-2.5,15.6-5.9,22-8.8,5.5-2.5,9.4-6.2,14.4-9.3h0Z"/>
      <path class="st10" d="M502.7,114.3c-34.2,6.7-69.1,9.6-103.7,13.3-6,.7-43.2,6.3-45.5,4.6-1.9-10.5-5.3-20.7-7.2-31.1-4-21.6-7.3-46.2-10.1-68.2-1.5-11.7-2.2-23.6-3.5-35.3l1.9-.6c49.3,31.4,96.7,65.9,144.5,99.6,4.8,3.4,21,12.5,23.4,15.7.3.5,0,1.6.2,1.9h0Z"/>
      <path class="st10" d="M11,308.3c-2.6,8.7-13.6,21-16.3,30-4.8,16-11.1,31.9-14.8,48.5-42.9,192.7,136.6,332.9,318.5,289.1,2.8-.7,20.9-5.4,21.8-6.1,3.3,7.7,5.7,15.8,8.5,23.6.4,1.1,1.3,1.9,1.5,2.2.8,2.2,2,4.4,2.5,5.8.8,2.3,1.4,5.4,2.5,8.3,17.1,46,34.2,92.5,51.7,138.2-4.2,0-8.3,0-12.5,0l-64.2-157.8c-2.3-1.4-17.7,4.2-21.7,5-94.7,21.1-196.6-8.3-259.6-82-32.6-38.2-47.2-69.4-60.2-118.1-13.3-49.8,5.2-144,38.6-184.1,1-1.2,1.8-2.5,3.7-2.6h0Z"/>
      <path class="st6" d="M369.3,648.1c-7.5,2.8-15.5,5-23.1,8.2-7.8,3.2-20.3,8.6-26.1,13.5-.9.7-19,5.4-21.8,6.1C116.5,719.6-63,579.4-20.1,386.8c3.7-16.6,10-32.5,14.8-48.5,2.7-8.9,13.7-21.2,16.3-30,0-.2,0-.6,0-.8,1.5.3,1.9-.2,1.7-1.7,4-3,17.4-23.6,22.5-29.5,92-106.5,260.6-132.7,375.7-47.4,142.3,105.4,126.3,302-13,401.6-7.4,5.3-20.5,14.6-28.6,17.6h0ZM25.2,355.8c-3.2,4.8-7.2,15.5-9.2,21.2-29.6,83.2,4.1,175.7,73.9,226.8,129,94.5,322,27.9,367.3-123.9,1.5-5,5.8-18.8,5.4-23.3.8-.2.8-1,.8-1.7,0-1.1,0-2.3,0-3.3,1-1.8,1.3-5,1.6-7.2,11.5-97-39.2-185.8-132-218.5-29.8-10.5-71.9-10.9-103.3-7.4-85.1,9.5-168.5,57.7-204.7,137.3h0Z"/>
      <path class="st12" d="M369.3,648.1c1.5,5.9,4.4,11.4,6.7,17.1,1.1,2.8,1.5,6.3,2.5,8.8-13.5,11.4-30.4,20.6-48.3,21.7-.1-.4-1.1-1.2-1.5-2.2-2.9-7.8-5.2-15.9-8.5-23.6,5.8-4.8,18.3-10.2,26.1-13.5,7.5-3.2,15.6-5.4,23.1-8.2h0Z"/>
      <path class="st12" d="M381.8,680.6c1,2.5,1.6,5.1,2.5,7.5-5,3.1-8.9,6.8-14.4,9.3-6.4,2.9-15.3,6.3-22,8.8-4.1,1.5-8.4,2.9-12.7,3.5-1.1-2.9-1.7-6.1-2.5-8.3,11-2.1,25.7-6,35.3-11.8,4.2-2.5,8.7-8,13.9-9h0Z"/>
      <path class="st6" d="M381.8,680.6c-5.2,1-9.6,6.5-13.9,9-9.6,5.8-24.3,9.7-35.3,11.8-.5-1.4-1.7-3.6-2.5-5.8,17.9-1,34.9-10.3,48.3-21.7.6,1.5,2.3,4.1,3.3,6.7h0Z"/>
      <path class="st10" d="M12.7,305.8c.2,1.5-.1,2-1.7,1.7.7-3,.8-1,1.7-1.7Z"/>
      <path class="st8" d="M463.5,451.6c0,1.1,0,2.3,0,3.3-3.3-.3-.9,1.2-.8,1.7.4,4.5-3.9,18.3-5.4,23.3-45.3,151.8-238.4,218.4-367.3,123.9C20.1,552.7-13.6,460.2,16,377c2-5.7,6-16.5,9.2-21.2,13.1-19.7,35.4-48.2,54.2-63.7,70-57.7,200.6-63,280-22.5,50.6,25.8,96.4,100.9,103.2,156.7,1,8.5.5,17.1.9,25.3h0ZM391.8,559.8c3.4-3.3,6.7-3.8,6.7-10.4,0-10.9-8.4-11.7-17.1-11.2-3.2.2-11,2.9-12.8.3l-131.3-276.8c-1.3-1.3-3.3-.9-5-.8-30.2,1.7-63.1,10.5-93.6,13.1-7.5,2.2-8.9,9.3-6.4,16.1,1,2.8,1.7,3.1,3.7,4.2,2.8,6.1,9.3,7.8,15.5,8.4l42.9-5-45.8,272.3c-7.9,1.1-17.7,1.4-17.5,11.7-2.1.9-1.8,2.7-1.6,4.5,1.9,18.4,31.2,10.4,42.9,8.8,7.5-1,14.9-2.2,22.5-3.3,7.7-1.1,22.1.2,26.8-6.9.6-.8,0-2,.2-2.2,2.4-3.9,4.2-3.8,4.2-9.6,0-17.6-20.1-9.6-30.9-9.6,3.9-26.1,9.1-52.1,12.5-78.3l86.5-11.5,32.6,72.3c-5.5.8-18.8,1.5-22.1,5.8-1.3,1.7-1.5,3.9-2.1,5.8-.5,1.4-1.7,2-1.6,4.5.3,8.3,8.6,12.9,16.2,13,19.5-3.1,39.5-4.1,58.9-7.8,6.2-1.2,10.7-1.7,15.4-5.8.5-.5.2-1.3.2-1.4h0Z"/>
      <path class="st10" d="M463.5,451.6c-.5-8.1,0-16.8-.9-25.3-6.8-55.7-52.6-130.9-103.2-156.7-79.4-40.5-210-35.2-280,22.5-18.8,15.5-41,44-54.2,63.7,36.2-79.5,119.6-127.8,204.7-137.3,31.3-3.5,73.4-3.2,103.3,7.4,92.8,32.7,143.5,121.5,132,218.5-.2,2.1-.6,5.4-1.6,7.2h0Z"/>
      <path class="st10" d="M463.5,454.9c0,.7,0,1.4-.8,1.7,0-.4-2.5-2,.8-1.7Z"/>
      <path class="st5" d="M391.8,559.8c-26.8,3.2-53.5,8.5-80.4,10-6.9-.8-7.4-7-8.7-12.5.6-1.9.8-4.1,2.1-5.8,3.3-4.3,16.6-5.1,22.1-5.8,2.5-.3,5.3-.2,7.9-.8,1-.2,1.5.6,1.2-1.2l-35.9-77.8-91,11.6c-2.3.7-1.1,5.3-1.4,7.4-3.4,26.1-8.6,52.2-12.5,78.3,10.8,0,30.9-8,30.9,9.6,0,5.8-1.8,5.7-4.2,9.6-2.3,0-4.2,1.2-6.4,1.6-18.8,3.4-41.7,6.3-60.9,8.3-10.4,1.1-23.3,4.2-23.6-10.7-.2-10.3,9.6-10.5,17.5-11.7,2.7-.4,7.5.7,8.3-2.9,12.4-80.3,25.9-160.5,38.2-240.8,1.9-12.5,4.1-25.2,5.1-37.8l-54.6,7.5c-4.1.2-6,.3-9.6-1.6-2-1.1-2.7-1.4-3.7-4.2-2.5-6.7-1.1-13.8,6.4-16.1,30.5-2.5,63.4-11.3,93.6-13.1,1.7-.1,3.7-.4,5,.8l131.3,276.8c1.8,2.6,9.6-.1,12.8-.3,8.7-.5,17,.3,17.1,11.2,0,6.6-3.3,7.1-6.7,10.4h0ZM234.3,298.3c-1.9-1.9-2.2,4.9-2.5,5.4,20.8,46.3,44,91.8,64.9,138.1l5.1.5-67.5-144.1h0ZM229.3,330c-5.5,41.4-11.6,82.7-17.5,124.1,23.1-2.9,46.2-5.8,69.2-9.2,2.3-.3,4.8-.3,7.1-.9,1-.2,1.5.6,1.2-1.2l-57.6-121.5-1.5-1.4c-.5,3.2-.4,6.9-.8,10h0ZM349.3,543.2l-35.9-78.6c-2.3-3-6.8-.4-4.2,3.4l36.8,74.8c.7.5,3.1.6,3.3.4h0Z"/>
      <path class="st1" d="M136,294.2c3.6,1.9,5.5,1.9,9.6,1.6l54.6-7.5c-1,12.6-3.2,25.2-5.1,37.8-12.4,80.3-25.8,160.5-38.2,240.8-.9,3.6-5.6,2.5-8.3,2.9l45.8-272.3-42.9,5c-6.2-.6-12.7-2.2-15.5-8.4h0Z"/>
      <path class="st1" d="M207.7,484.9c.3-2.1-1-6.6,1.4-7.4l91-11.6,35.9,77.8c.3,1.8-.3,1-1.2,1.2-2.7.6-5.4.5-7.9.8l-32.6-72.3-86.5,11.5h0Z"/>
      <path class="st1" d="M221.8,582.3c-.2.3.3,1.4-.2,2.2-4.8,7.1-19.1,5.8-26.8,6.9-7.6,1.1-15,2.3-22.5,3.3-11.7,1.5-40.9,9.5-42.9-8.8-.2-1.8-.4-3.6,1.6-4.5.3,14.9,13.2,11.8,23.6,10.7,19.1-2,42-4.9,60.9-8.3,2.2-.4,4.1-1.6,6.4-1.6h0Z"/>
      <path class="st1" d="M391.8,559.8c0,0,.3,1-.2,1.4-4.7,4.2-9.2,4.6-15.4,5.8-19.4,3.7-39.4,4.7-58.9,7.8-7.5-.2-15.9-4.7-16.2-13,0-2.5,1.1-3.1,1.6-4.5,1.3,5.5,1.9,11.7,8.7,12.5,26.9-1.5,53.6-6.8,80.4-10Z"/>
      <path class="st8" d="M281,444.9c-23,3.4-46.1,6.3-69.2,9.2,5.9-41.3,12-82.7,17.5-124.1l51.7,114.9h0Z"/>
      <path class="st1" d="M229.3,330c.4-3.1.3-6.8.8-10l1.5,1.4,57.6,121.5c.3,1.8-.3,1-1.2,1.2-2.3.6-4.8.5-7.1.9l-51.7-114.9h0Z"/>
      <path class="st9" d="M234.3,298.3l67.5,144.1-5.1-.5c-21-46.4-44.1-91.8-64.9-138.1.3-.6.6-7.3,2.5-5.4h0Z"/>
      <path class="st9" d="M349.3,543.2c-.3.2-2.7,0-3.3-.4l-36.8-74.8c-2.6-3.8,2-6.5,4.2-3.4l35.9,78.6h0Z"/>
    </g>
  </g>
  <path class="st7" d="M594.5,115.3s74.7,721.3,70.9,721.4l-610.6,23.4c-3.6.1-6.6-2.6-6.8-6.2L0,35.7c-.2-3.6,2.5-6.7,6.1-7L426.5,0"/>
  <path class="st10" d="M455.3,844.8l-71.4-178.3c-1.2-3,.3-6.5,3.3-7.7l42.6-17.1c3-1.2,6.5.3,7.7,3.3l79,197.4"/>
  <path class="st10" d="M563.5,350c-50.6-129-203.4-189.7-341.5-135.6C84.1,268.5,13.2,417,63.7,545.9c50.2,128.2,201.6,188.9,338.9,136.6.8-.3,1.7-.7,2.5-1,17.5-6.8,33.9-15.2,49.1-24.9,104.9-66.5,153.4-194,109.3-306.7h0ZM387,645.5c-121,47.4-253.5-2-295.9-110.4-42.5-108.4,21.1-234.7,142.1-282.1s253.4,2,295.9,110.4c42.5,108.4-21.1,234.7-142.1,282.1h0Z"/>
  <g class="st4">
    <text class="st2" transform="translate(215.6 603.2) rotate(-8.5) scale(.8 1)"><tspan x="0" y="0">A</tspan></text>
  </g>
  <g class="st4">
    <text class="st3" transform="translate(225.4 595) rotate(-8.5) scale(.8 1)"><tspan x="0" y="0">A</tspan></text>
  </g>
  <path class="st6" d="M600.7,1033.5l-42.9,16.3c-3,1.2-6.5-.4-7.6-3.4l-142.8-375.6c-1.2-3,.4-6.5,3.4-7.6l42.9-16.3c3-1.2,6.5.4,7.6,3.4l142.8,375.6c1.2,3.1-.4,6.4-3.4,7.6h0Z"/>
  <path class="st12" d="M458.7,643.5l13.3,34.9c-3.4,2.5-10.4,9.6-23.7,15-7.4,3-23,5.5-30.5,4.9l-10.5-27.5"/>
  <path class="st10" d="M426.5,0l168,115.3-137.5,18.1c-5.8.8-11.2-3.3-12.1-9.1C445,124.3,426.5,0,426.5,0Z"/>
  <path class="st6" d="M651.6,89"/>
  <path class="st6" d="M594.5,115.3"/>
  <path class="st6" d="M591.5,351.6c-41.5-132.2-189.7-203.4-331.2-159S37.8,380,79.2,512.2c41.2,131.4,187.9,202.5,328.6,159.8.9-.3,1.7-.5,2.6-.8,17.9-5.6,34.8-12.8,50.7-21.4,109.3-59,166.6-182.8,130.4-298.3h0ZM394.7,634c-124,38.9-252.7-19.7-287.5-130.7s37.4-232.6,161.4-271.5c124-38.9,252.7,19.6,287.5,130.7,34.8,111.1-37.4,232.6-161.4,271.5h0Z"/>
  <line class="st0" x1="311.7" y1="320.3" x2="426.7" y2="546.5"/>
  <path class="st6" d="M440.1,682.4"/>
  <path class="st10" d="M195.8,222.2"/>
</svg>