<?xml version="1.0" encoding="UTF-8"?>
<svg id="Layer_1" xmlns="http://www.w3.org/2000/svg" version="1.1" viewBox="0 0 665.6 1050.2">
  <!-- Generator: Adobe Illustrator 29.6.0, SVG Export Plug-In . SVG Version: 2.1.1 Build 207)  -->
  <defs>
    <style>
      .st0 {
        fill: none;
      }

      .st1 {
        fill: #78272b;
      }

      .st1, .st2 {
        font-family: Courier, Courier;
        font-size: 542.4px;
      }

      .st1, .st2, .st3 {
        isolation: isolate;
      }

      .st2 {
        fill: #a0343a;
      }

      .st4 {
        fill: #444d60;
      }

      .st5 {
        fill: #d3c7aa;
      }

      .st6 {
        fill: #aea181;
      }

      .st7 {
        fill: #283246;
      }
    </style>
  </defs>
  <path class="st5" d="M594.5,115.3s74.7,721.3,70.9,721.4l-610.6,23.4c-3.6,0-6.6-2.6-6.8-6.2L0,35.7c-.2-3.6,2.5-6.7,6.1-7L426.5,0"/>
  <path class="st6" d="M455.3,844.8l-71.4-178.3c-1.2-3,.3-6.5,3.3-7.7l42.6-17.1c3-1.2,6.5.3,7.7,3.3l79,197.4"/>
  <path class="st6" d="M563.5,350c-50.6-129-203.4-189.7-341.5-135.6C84.1,268.5,13.2,417,63.7,545.9c50.2,128.2,201.6,188.9,338.9,136.6.8-.3,1.7-.7,2.5-1,17.5-6.8,33.9-15.2,49.1-24.9,104.9-66.5,153.4-194,109.3-306.7h0ZM387,645.5c-121,47.4-253.5-2-295.9-110.4-42.5-108.4,21.1-234.7,142.1-282.1,121-47.4,253.4,2,295.9,110.4,42.5,108.4-21.1,234.7-142.1,282.1h0Z"/>
  <g class="st3">
    <g class="st3">
      <text class="st1" transform="translate(215.6 603.2) rotate(-8.5) scale(.8 1)"><tspan x="0" y="0">A</tspan></text>
    </g>
  </g>
  <g class="st3">
    <g class="st3">
      <text class="st2" transform="translate(225.4 595) rotate(-8.5) scale(.8 1)"><tspan x="0" y="0">A</tspan></text>
    </g>
  </g>
  <path class="st4" d="M600.7,1033.5l-42.9,16.3c-3,1.2-6.5-.4-7.6-3.4l-142.8-375.6c-1.2-3,.4-6.5,3.4-7.6l42.9-16.3c3-1.2,6.5.4,7.6,3.4l142.8,375.6c1.2,3.1-.4,6.4-3.4,7.6h0Z"/>
  <path class="st7" d="M458.7,643.5l13.3,34.9c-3.4,2.5-10.4,9.6-23.7,15-7.4,3-23,5.5-30.5,4.9l-10.5-27.5"/>
  <path class="st6" d="M426.5,0l168,115.3-137.5,18.1c-5.8.8-11.2-3.3-12.1-9.1C445,124.3,426.5,0,426.5,0Z"/>
  <path class="st4" d="M651.6,89"/>
  <path class="st4" d="M594.5,115.3"/>
  <path class="st4" d="M591.5,351.6c-41.5-132.2-189.7-203.4-331.2-159S37.8,380,79.2,512.2c41.2,131.4,187.9,202.5,328.6,159.8.9-.3,1.7-.5,2.6-.8,17.9-5.6,34.8-12.8,50.7-21.4,109.3-59,166.6-182.8,130.4-298.3h0ZM394.7,634c-124,38.9-252.7-19.7-287.5-130.7s37.4-232.6,161.4-271.5,252.7,19.6,287.5,130.7-37.4,232.6-161.4,271.5h0Z"/>
  <line class="st0" x1="311.7" y1="320.3" x2="426.7" y2="546.5"/>
  <path class="st4" d="M440.1,682.4"/>
  <path class="st6" d="M195.8,222.2"/>
</svg>