<?xml version="1.0" encoding="UTF-8"?>
<svg id="Layer_1" xmlns="http://www.w3.org/2000/svg" version="1.1" viewBox="0 0 900 900">
  <!-- Generator: Adobe Illustrator 29.6.0, SVG Export Plug-In . SVG Version: 2.1.1 Build 207)  -->
  <defs>
    <style>
      .st0 {
        fill: none;
      }

      .st1 {
        fill: #444d60;
      }

      .st2, .st3, .st4 {
        isolation: isolate;
      }

      .st5 {
        fill: #d3c7aa;
      }

      .st6 {
        fill: #aea181;
      }

      .st3 {
        fill: #78272b;
      }

      .st3, .st4 {
        font-family: Courier, Courier;
        font-size: 800px;
      }

      .st4 {
        fill: #a0343a;
      }
    </style>
  </defs>
  <path class="st5" d="M881.6,303.8C811.7,81.9,561.9-37.7,323.5,36.9,85,111.4-51.6,351.5,18.3,573.5c69.4,220.7,316.7,340,553.9,268.3,1.5-.5,2.9-.8,4.4-1.3,30.2-9.4,58.6-21.5,85.4-35.9,184.2-99,280.8-306.9,219.8-500.8h0v.2-.2h-.2ZM65.4,558.6l484.5,219.4,272.1-455.9"/>
  <g class="st2">
    <g class="st2">
      <g class="st2">
        <g class="st2">
          <g class="st2">
            <text class="st3" transform="translate(272.7 697.9) rotate(-8.5) scale(.8 1)"><tspan x="0" y="0">A</tspan></text>
          </g>
        </g>
      </g>
    </g>
  </g>
  <g class="st2">
    <g class="st2">
      <g class="st2">
        <g class="st2">
          <g class="st2">
            <text class="st4" transform="translate(287.2 685.9) rotate(-8.5) scale(.8 1)"><tspan x="0" y="0">A</tspan></text>
          </g>
        </g>
      </g>
    </g>
  </g>
  <path class="st1" d="M983.9-144.2"/>
  <path class="st1" d="M833.6-21.6"/>
  <path class="st1" d="M829.1,326.9c-61.4-194.9-280.8-299.9-490.2-234.4C129.4,157.9,9.5,368.7,70.8,563.7c61,193.8,278.1,298.6,486.4,235.7,1.3-.4,2.5-.7,3.9-1.1,26.5-8.2,51.5-18.9,75-31.6,161.8-87,246.6-269.6,193-439.8h0v.2-.2h0ZM537.8,743.4c-183.6,57.3-374-29-425.5-192.7s55.4-343.1,238.9-400.4c183.6-57.3,374,28.9,425.5,192.7s-55.4,343-238.9,400.3h0Z"/>
  <line class="st0" x1="414.9" y1="280.7" x2="585.2" y2="614.3"/>
  <path class="st1" d="M605,814.7"/>
  <path class="st6" d="M243.4,136"/>
</svg>